[h264 @ 0x562c86b40b80] Reinit context to 1920x1088, pix_fmt: yuv420p
Input #0, mov,mp4,m4a,3gp,3g2,mj2, from '/var/www/html/project/media/video/original/06.mov':
  Metadata:
    major_brand     : qt  
    minor_version   : 512
    compatible_brands: qt  
    creation_time   : 2025-08-16T13:38:50.000000Z
    encoder         : Blackmagic Design DaVinci Resolve Studio
  Duration: 00:00:24.33, start: 0.000000, bitrate: 6384 kb/s
    Stream #0:0: Video: h264 (High), 1 reference frame (avc1 / 0x31637661), yuv420p(tv, bt709/bt709/unknown, progressive, left), 1920x1080 (1920x1088), 6058 kb/s, SAR 1:1 DAR 16:9, 24 fps, 24 tbr, 12288 tbn, 24576 tbc (default)
    Metadata:
      creation_time   : 2025-08-16T13:38:50.000000Z
      handler_name    : VideoHandler
      encoder         : H.264
      timecode        : 01:00:00:00
    Stream #0:1: Audio: aac (LC) (mp4a / 0x6134706D), 48000 Hz, stereo, fltp, 319 kb/s (default)
    Metadata:
      creation_time   : 2025-08-16T13:38:50.000000Z
      handler_name    : SoundHandler
    Stream #0:2(eng): Data: none (tmcd / 0x64636D74), 0 kb/s (default)
    Metadata:
      creation_time   : 2025-08-16T13:38:50.000000Z
      handler_name    : TimeCodeHandler
      timecode        : 01:00:00:00
Input #1, png_pipe, from '/var/www/html/project/static/images/templates/logo_vertical.png':
  Duration: N/A, bitrate: N/A
    Stream #1:0: Video: png, 1 reference frame, rgba(pc), 1920x1080 [SAR 2835:2835 DAR 16:9], 25 tbr, 25 tbn, 25 tbc
[h264 @ 0x562c86b5f8c0] Reinit context to 1280x720, pix_fmt: yuv420p
Input #2, mov,mp4,m4a,3gp,3g2,mj2, from '/var/www/html/project/static/images/templates/Codino.mp4':
  Metadata:
    major_brand     : mp42
    minor_version   : 1
    compatible_brands: isommp41mp42
    creation_time   : 2021-07-11T07:02:58.000000Z
  Duration: 00:00:02.00, start: 0.000000, bitrate: 1007 kb/s
    Stream #2:0(ita): Audio: aac (LC) (mp4a / 0x6134706D), 44100 Hz, stereo, fltp, 102 kb/s (default)
    Metadata:
      creation_time   : 2021-07-11T07:02:58.000000Z
      handler_name    : Core Media Audio
    Stream #2:1(und): Video: h264 (High), 1 reference frame (avc1 / 0x31637661), yuv420p(tv, bt709, progressive, left), 1280x720 [SAR 1:1 DAR 16:9], 813 kb/s, 25 fps, 25 tbr, 25k tbn, 50k tbc (default)
    Metadata:
      creation_time   : 2021-07-11T07:02:58.000000Z
      handler_name    : Core Media Video
[Parsed_scale_1 @ 0x562c86c22a00] w:1920 h:1080 flags:'bilinear' interl:0
[Parsed_scale_4 @ 0x562c86b8cf40] w:-1 h:1080 flags:'bilinear' interl:0
[Parsed_scale_7 @ 0x562c86b83cc0] w:1920 h:1080 flags:'bilinear' interl:0
[Parsed_scale_9 @ 0x562c86beb840] w:1920 h:1080 flags:'bilinear' interl:0
Stream mapping:
  Stream #0:0 (h264) -> split
  Stream #0:1 (aac) -> concat:in0:a0
  Stream #1:0 (png) -> scale
  Stream #2:0 (aac) -> concat:in1:a0
  Stream #2:1 (h264) -> scale
  concat:out:v0 -> Stream #0:0 (libx264)
  concat:out:a0 -> Stream #0:1 (aac)
Press [q] to stop, [?] for help
[h264 @ 0x562c86b83b40] Reinit context to 1920x1088, pix_fmt: yuv420p
[h264 @ 0x562c86fef380] Reinit context to 1280x720, pix_fmt: yuv420p
[Parsed_scale_1 @ 0x562c885a1740] w:1920 h:1080 flags:'bilinear' interl:0
[Parsed_scale_4 @ 0x562c885a3400] w:-1 h:1080 flags:'bilinear' interl:0
[Parsed_scale_7 @ 0x562c885a7300] w:1920 h:1080 flags:'bilinear' interl:0
[Parsed_scale_9 @ 0x562c885a8a80] w:1920 h:1080 flags:'bilinear' interl:0
[graph 0 input from stream 0:0 @ 0x562c885ad280] w:1920 h:1080 pixfmt:yuv420p tb:1/12288 fr:24/1 sar:1/1 sws_param:flags=2
[graph 0 input from stream 1:0 @ 0x562c885a5740] w:1920 h:1080 pixfmt:rgba tb:1/25 fr:25/1 sar:2835/2835 sws_param:flags=2
[graph 0 input from stream 2:1 @ 0x562c885a3300] w:1280 h:720 pixfmt:yuv420p tb:1/25000 fr:25/1 sar:1/1 sws_param:flags=2
[graph_0_in_0_1 @ 0x562c885991c0] tb:1/48000 samplefmt:fltp samplerate:48000 chlayout:0x3
[graph_0_in_2_0 @ 0x562c885aad00] tb:1/44100 samplefmt:fltp samplerate:44100 chlayout:0x3
[Parsed_concat_12 @ 0x562c885ab2c0] auto-inserting filter 'auto_resampler_0' between the filter 'graph_0_in_2_0' and the filter 'Parsed_concat_12'
[Parsed_scale_1 @ 0x562c885a1740] w:1920 h:1080 fmt:yuv420p sar:1/1 -> w:1920 h:1080 fmt:yuv420p sar:1/1 flags:0x2
[Parsed_boxblur_2 @ 0x562c86be3d80] luma_radius:54 luma_power:1 chroma_radius:27 chroma_power:1 alpha_radius:54 alpha_power:1 w:1920 chroma_w:960 h:1080 chroma_h:540
[Parsed_setsar_3 @ 0x562c885a35c0] w:1920 h:1080 sar:1/1 dar:16/9 -> sar:1/1 dar:16/9
[Parsed_scale_4 @ 0x562c885a3400] w:1920 h:1080 fmt:yuv420p sar:1/1 -> w:1920 h:1080 fmt:yuva420p sar:1/1 flags:0x2
[Parsed_setsar_5 @ 0x562c885a5180] w:1920 h:1080 sar:1/1 dar:16/9 -> sar:1/1 dar:16/9
[Parsed_overlay_6 @ 0x562c885a5c40] main w:1920 h:1080 fmt:yuv420p overlay w:1920 h:1080 fmt:yuva420p
[Parsed_overlay_6 @ 0x562c885a5c40] [framesync @ 0x562c885a62a8] Selected 1/12288 time base
[Parsed_overlay_6 @ 0x562c885a5c40] [framesync @ 0x562c885a62a8] Sync level 2
[Parsed_scale_7 @ 0x562c885a7300] w:1920 h:1080 fmt:rgba sar:2835/2835 -> w:1920 h:1080 fmt:yuva420p sar:1/1 flags:0x2
[Parsed_setsar_8 @ 0x562c885a7e00] w:1920 h:1080 sar:1/1 dar:16/9 -> sar:1/1 dar:16/9
[Parsed_overlay_11 @ 0x562c885aa100] main w:1920 h:1080 fmt:yuv420p overlay w:1920 h:1080 fmt:yuva420p
[Parsed_overlay_11 @ 0x562c885aa100] [framesync @ 0x562c885aa268] Selected 1/307200 time base
[Parsed_overlay_11 @ 0x562c885aa100] [framesync @ 0x562c885aa268] Sync level 2
[Parsed_scale_9 @ 0x562c885a8a80] w:1280 h:720 fmt:yuv420p sar:1/1 -> w:1920 h:1080 fmt:yuv420p sar:1/1 flags:0x2
[Parsed_setsar_10 @ 0x562c885a9580] w:1920 h:1080 sar:1/1 dar:16/9 -> sar:1/1 dar:16/9
[auto_resampler_0 @ 0x562c885b8080] ch:2 chl:stereo fmt:fltp r:44100Hz -> ch:2 chl:stereo fmt:fltp r:48000Hz
[libx264 @ 0x562c86c1f980] using SAR=1/1
[libx264 @ 0x562c86c1f980] using cpu capabilities: MMX2 SSE2Fast SSSE3 SSE4.2 AVX FMA3 BMI2 AVX2
[libx264 @ 0x562c86c1f980] profile High, level 4.0
[libx264 @ 0x562c86c1f980] 264 - core 155 r2917 0a84d98 - H.264/MPEG-4 AVC codec - Copyleft 2003-2018 - http://www.videolan.org/x264.html - options: cabac=1 ref=1 deblock=1:0:0 analyse=0x3:0x113 me=hex subme=2 psy=1 psy_rd=1.00:0.00 mixed_ref=0 me_range=16 chroma_me=1 trellis=0 8x8dct=1 cqm=0 deadzone=21,11 fast_pskip=1 chroma_qp_offset=0 threads=24 lookahead_threads=8 sliced_threads=0 nr=0 decimate=1 interlaced=0 bluray_compat=0 constrained_intra=0 bframes=3 b_pyramid=2 b_adapt=1 b_bias=0 direct=1 weightb=1 open_gop=0 weightp=1 keyint=250 keyint_min=24 scenecut=40 intra_refresh=0 rc_lookahead=10 rc=crf mbtree=1 crf=18.0 qcomp=0.60 qpmin=0 qpmax=69 qpstep=4 ip_ratio=1.40 aq=1:1.00
Output #0, mp4, to '/var/www/html/project/media/video/watermarks/06.mp4':
  Metadata:
    major_brand     : qt  
    minor_version   : 512
    compatible_brands: qt  
    encoder         : Lavf58.29.100
    Stream #0:0: Video: h264 (libx264), 1 reference frame (avc1 / 0x31637661), yuv420p(progressive), 1920x1080 [SAR 1:1 DAR 16:9], q=-1--1, 24 fps, 12288 tbn, 24 tbc (default)
    Metadata:
      encoder         : Lavc58.54.100 libx264
    Side data:
      cpb: bitrate max/min/avg: 0/0/0 buffer size: 0 vbv_delay: -1
    Stream #0:1: Audio: aac (LC) (mp4a / 0x6134706D), 48000 Hz, stereo, fltp, delay 1024, 128 kb/s (default)
    Metadata:
      encoder         : Lavc58.54.100 aac
[Parsed_overlay_6 @ 0x562c885a5c40] [framesync @ 0x562c885a62a8] Sync level 1
[Parsed_overlay_6 @ 0x562c885a5c40] [framesync @ 0x562c885a62a8] Sync level 0
[Parsed_overlay_11 @ 0x562c885aa100] [framesync @ 0x562c885aa268] Sync level 0
[Parsed_concat_12 @ 0x562c885ab2c0] EOF on in0:v0, 1 streams left in segment.
[Parsed_concat_12 @ 0x562c885ab2c0] EOF on in0:a0, 0 streams left in segment.
[Parsed_concat_12 @ 0x562c885ab2c0] Segment finished at pts=24361333
Past duration 0.607994 too large
Past duration 0.648003 too large
Past duration 0.687996 too large
Past duration 0.728004 too large
Past duration 0.767998 too large
Past duration 0.808006 too large
Past duration 0.848000 too large
Past duration 0.887993 too large
Past duration 0.928001 too large
Past duration 0.967995 too large
Past duration 0.648003 too large
*** dropping frame 616 from stream 0 at ts 615
Past duration 0.687996 too large
Past duration 0.728004 too large
Past duration 0.767998 too large
Past duration 0.808006 too large
Past duration 0.848000 too large
Past duration 0.887993 too large
Past duration 0.928001 too large
Past duration 0.967995 too large
[Parsed_concat_12 @ 0x562c885ab2c0] EOF on in1:v0, 1 streams left in segment.
[Parsed_concat_12 @ 0x562c885ab2c0] EOF on in1:a0, 0 streams left in segment.
[Parsed_concat_12 @ 0x562c885ab2c0] Segment finished at pts=26380020
No more output streams to write to, finishing.
frame=  633 fps= 20 q=-1.0 Lsize=   18094kB time=00:00:26.38 bitrate=5616.9kbits/s dup=0 drop=1 speed=0.819x    
[AVIOContext @ 0x562c86b3ef80] Statistics: 0 seeks, 61 writeouts
video:17669kB audio:406kB subtitle:0kB other streams:0kB global headers:0kB muxing overhead: 0.104805%
Input file #0 (/var/www/html/project/media/video/original/06.mov):
  Input stream #0:0 (video): 584 packets read (18429045 bytes); 584 frames decoded; 
  Input stream #0:1 (audio): 1144 packets read (976144 bytes); 1142 frames decoded (1169344 samples); 
  Input stream #0:2 (data): 1 packets read (4 bytes); 
  Total: 1729 packets (19405193 bytes) demuxed
Input file #1 (/var/www/html/project/static/images/templates/logo_vertical.png):
  Input stream #1:0 (video): 1 packets read (93903 bytes); 1 frames decoded; 
  Total: 1 packets (93903 bytes) demuxed
Input file #2 (/var/www/html/project/static/images/templates/Codino.mp4):
  Input stream #2:0 (audio): 89 packets read (26579 bytes); 87 frames decoded (89024 samples); 
  Input stream #2:1 (video): 50 packets read (203365 bytes); 50 frames decoded; 
  Total: 139 packets (229944 bytes) demuxed
Output file #0 (/var/www/html/project/media/video/watermarks/06.mp4):
  Output stream #0:0 (video): 633 frames encoded; 633 packets muxed (18093271 bytes); 
  Output stream #0:1 (audio): 1237 frames encoded (1266241 samples); 1238 packets muxed (415467 bytes); 
  Total: 1871 packets (18508738 bytes) muxed
[AVIOContext @ 0x562c86c24440] Statistics: 2 seeks, 74 writeouts
[libx264 @ 0x562c86c1f980] frame I:4     Avg QP:10.65  size: 89657
[libx264 @ 0x562c86c1f980] frame P:226   Avg QP:15.15  size: 47755
[libx264 @ 0x562c86c1f980] frame B:403   Avg QP:16.45  size: 17224
[libx264 @ 0x562c86c1f980] consecutive B-frames:  7.7% 17.7% 13.3% 61.3%
[libx264 @ 0x562c86c1f980] mb I  I16..4: 50.0% 29.3% 20.7%
[libx264 @ 0x562c86c1f980] mb P  I16..4: 23.7% 23.9%  4.5%  P16..4: 17.3%  9.5%  5.3%  0.0%  0.0%    skip:15.8%
[libx264 @ 0x562c86c1f980] mb B  I16..4:  7.3%  4.2%  0.3%  B16..8: 25.8% 10.0%  1.0%  direct: 8.0%  skip:43.5%  L0:48.7% L1:42.9% BI: 8.4%
[libx264 @ 0x562c86c1f980] 8x8 transform intra:42.6% inter:33.6%
[libx264 @ 0x562c86c1f980] coded y,uvDC,uvAC intra: 24.7% 28.3% 3.5% inter: 10.1% 18.2% 0.3%
[libx264 @ 0x562c86c1f980] i16 v,h,dc,p: 37% 26% 10% 27%
[libx264 @ 0x562c86c1f980] i8 v,h,dc,ddl,ddr,vr,hd,vl,hu: 20% 36% 23%  4%  4%  3%  4%  3%  3%
[libx264 @ 0x562c86c1f980] i4 v,h,dc,ddl,ddr,vr,hd,vl,hu: 27% 25% 18%  5%  8%  4%  6%  3%  5%
[libx264 @ 0x562c86c1f980] i8c dc,h,v,p: 60% 21% 15%  4%
[libx264 @ 0x562c86c1f980] Weighted P-Frames: Y:8.8% UV:0.4%
[libx264 @ 0x562c86c1f980] kb/s:5479.14
[aac @ 0x562c86c20380] Qavg: 1958.663
[AVIOContext @ 0x562c86b47f80] Statistics: 19494468 bytes read, 4 seeks
[AVIOContext @ 0x562c86b44d00] Statistics: 93903 bytes read, 0 seeks
[AVIOContext @ 0x562c86b537c0] Statistics: 1530915 bytes read, 42 seeks
